<svg width="50" height="50" viewBox="0 0 50 50" fill="none" xmlns="http://www.w3.org/2000/svg">
<g clip-path="url(#clip0_87_498)">
<path fill-rule="evenodd" clip-rule="evenodd" d="M50 9.59989C50 4.30163 45.7912 0.00012207 40.6095 0.00012207H9.39042C4.20877 0.00012207 0 4.30163 0 9.59989V40.3999C0 45.6968 4.20877 49.9997 9.39046 49.9997H40.6095C45.7912 49.9997 50 45.6968 50 40.3999L50 9.59989Z" fill="#0C3B7C"/>
<path fill-rule="evenodd" clip-rule="evenodd" d="M0.00170898 31.0624H24.9737V49.9998H0.00172729L0.00170898 31.0624Z" fill="#0C3B7C"/>
<path d="M22.724 33.0955L18.6968 33.0914V28.1678C18.6968 27.1157 19.096 26.5682 19.9764 26.4431H22.724C24.6834 26.4431 25.9509 27.7063 25.9509 29.7508C25.9509 31.8507 24.7155 33.0934 22.724 33.0955ZM18.6968 19.8154V18.5194C18.6968 17.3853 19.1661 16.846 20.195 16.7763H22.2567C24.0236 16.7763 25.0825 17.857 25.0825 19.6677C25.0825 21.0458 24.3565 22.6556 22.3209 22.6556H18.6968V19.8154ZM27.8662 24.7288L27.1382 24.3104L27.774 23.7547C28.514 23.1046 29.7534 21.6425 29.7534 19.1202C29.7534 15.2567 26.8233 12.7652 22.2888 12.7652H17.1145V12.7631H16.5248C15.1811 12.8144 14.1041 13.932 14.0901 15.3142V37.2358H22.3911C27.431 37.2358 30.684 34.4305 30.684 30.0851C30.684 27.7453 29.6331 25.7459 27.8662 24.7288Z" fill="white"/>
<path d="M32.8459 34.2075C32.8459 32.5329 34.1669 31.1781 35.7943 31.1781C37.4259 31.1781 38.753 32.5329 38.753 34.2075C38.753 35.88 37.4259 37.237 35.7943 37.237C34.1669 37.237 32.8459 35.88 32.8459 34.2075Z" fill="#00BAFC"/>
</g>
<defs>
<clipPath id="clip0_87_498">
<rect width="50" height="50" fill="white"/>
</clipPath>
</defs>
</svg>
