<svg width="48" height="48" viewBox="0 0 48 48" fill="none" xmlns="http://www.w3.org/2000/svg">
<g clip-path="url(#clip0_87_486)">
<path d="M37.2262 0H10.7738C4.8236 0 0 4.8236 0 10.7738V37.2262C0 43.1764 4.8236 48 10.7738 48H37.2262C43.1764 48 48 43.1764 48 37.2262V10.7738C48 4.8236 43.1764 0 37.2262 0Z" fill="url(#paint0_linear_87_486)"/>
<path d="M16.6262 8.31311H31.5898C31.9223 8.47937 32.4211 8.47937 32.7536 8.64564C34.2128 8.88212 35.5771 9.52087 36.6932 10.4901C37.8093 11.4594 38.633 12.7207 39.0716 14.1323C39.3172 14.9458 39.4842 15.7809 39.5704 16.6262V31.2573C39.3327 33.1116 38.648 34.8804 37.5753 36.4115C36.6549 37.4778 35.5011 38.3175 34.2035 38.8654C32.9059 39.4132 31.4995 39.6545 30.0934 39.5705H17.6238C15.3984 39.6785 13.2104 38.9689 11.472 37.5753C10.4149 36.662 9.58074 35.519 9.03321 34.2337C8.48569 32.9485 8.23935 31.5551 8.31305 30.16V18.5216C8.28558 17.6869 8.34128 16.8514 8.47931 16.0277C8.6472 14.3231 9.34805 12.7149 10.4823 11.4314C11.6165 10.148 13.1263 9.25466 14.7973 8.8784L16.6262 8.31311ZM11.472 24.1081V30.5923C11.4011 31.418 11.5116 32.2492 11.7957 33.0278C12.0798 33.8063 12.5306 34.5134 13.1166 35.0994C13.7027 35.6854 14.4097 36.1363 15.1882 36.4203C15.9668 36.7044 16.798 36.8149 17.6238 36.744C21.9466 36.9103 26.2694 36.9103 30.5922 36.744C34.4163 36.744 36.5777 34.4163 36.7439 30.5923C36.9102 26.2695 36.9102 21.9466 36.7439 17.6238C36.787 16.8046 36.6574 15.9855 36.3635 15.2196C36.0696 14.4538 35.6179 13.7582 35.0379 13.1782C34.4578 12.5981 33.7623 12.1465 32.9964 11.8526C32.2305 11.5586 31.4114 11.429 30.5922 11.4721C26.2694 11.3058 21.9466 11.3058 17.6238 11.4721C16.798 11.4012 15.9668 11.5117 15.1882 11.7958C14.4097 12.0798 13.7027 12.5307 13.1166 13.1167C12.5306 13.7027 12.0798 14.4098 11.7957 15.1883C11.5116 15.9669 11.4011 16.7981 11.472 17.6238V24.1081Z" fill="white"/>
<path d="M16.0276 24.1746C16.032 22.0152 16.8917 19.9456 18.4186 18.4187C19.9455 16.8918 22.0151 16.0321 24.1745 16.0277C26.3218 16.0702 28.3694 16.9422 29.8881 18.4609C31.4068 19.9796 32.2788 22.0272 32.3213 24.1746C32.3169 26.3339 31.4572 28.4035 29.9303 29.9304C28.4034 31.4573 26.3338 32.317 24.1745 32.3214C22.0271 32.2789 19.9795 31.4069 18.4608 29.8882C16.9421 28.3695 16.0701 26.3219 16.0276 24.1746ZM24.1745 19.0204C23.1646 19.004 22.1729 19.2895 21.3263 19.8403C20.4798 20.3912 19.817 21.1822 19.4229 22.1122C19.0288 23.0421 18.9214 24.0685 19.1144 25.0598C19.3074 26.0512 19.7921 26.9624 20.5062 27.6765C21.2204 28.3907 22.1316 28.8753 23.1229 29.0683C24.1143 29.2613 25.1407 29.1539 26.0706 28.7598C27.0005 28.3658 27.7916 27.703 28.3424 26.8564C28.8933 26.0099 29.1788 25.0182 29.1623 24.0083C29.1623 22.6854 28.6368 21.4168 27.7014 20.4814C26.766 19.5459 25.4973 19.0204 24.1745 19.0204Z" fill="white"/>
<path d="M30.4924 15.6952C30.4831 15.4307 30.5284 15.1671 30.6253 14.9208C30.7223 14.6746 30.8689 14.4509 31.0561 14.2637C31.2432 14.0766 31.4669 13.93 31.7132 13.833C31.9594 13.736 32.223 13.6908 32.4876 13.7C33.0052 13.7351 33.4925 13.9565 33.8594 14.3233C34.2262 14.6902 34.4477 15.1776 34.4827 15.6952C34.4827 16.2243 34.2725 16.7318 33.8983 17.106C33.5242 17.4801 33.0167 17.6903 32.4876 17.6903C31.9584 17.6903 31.4509 17.4801 31.0768 17.106C30.7026 16.7318 30.4924 16.2243 30.4924 15.6952Z" fill="white"/>
</g>
<defs>
<linearGradient id="paint0_linear_87_486" x1="-3.05923" y1="50.6602" x2="53.47" y2="-5.03776" gradientUnits="userSpaceOnUse">
<stop stop-color="#FED576"/>
<stop offset="0.26" stop-color="#F47133"/>
<stop offset="0.61" stop-color="#BC3081"/>
<stop offset="1" stop-color="#4C63D2"/>
</linearGradient>
<clipPath id="clip0_87_486">
<rect width="48" height="48" fill="white"/>
</clipPath>
</defs>
</svg>
