<svg width="30" height="30" viewBox="0 0 30 30" fill="none" xmlns="http://www.w3.org/2000/svg">
<path d="M14.2364 12.9864L9.375 17.8478L4.51364 12.9864C1.82879 10.3015 1.82879 5.9485 4.51364 3.26364C7.1985 0.578787 11.5515 0.578787 14.2364 3.26364C16.9213 5.9485 16.9213 10.3015 14.2364 12.9864ZM9.375 10.625C10.7557 10.625 11.875 9.50571 11.875 8.125C11.875 6.74429 10.7557 5.625 9.375 5.625C7.99429 5.625 6.875 6.74429 6.875 8.125C6.875 9.50571 7.99429 10.625 9.375 10.625ZM25.4864 24.2364L20.625 29.0977L15.7636 24.2364C13.0787 21.5515 13.0787 17.1985 15.7636 14.5136C18.4485 11.8288 22.8015 11.8288 25.4864 14.5136C28.1712 17.1985 28.1712 21.5515 25.4864 24.2364ZM20.625 21.875C22.0058 21.875 23.125 20.7558 23.125 19.375C23.125 17.9943 22.0058 16.875 20.625 16.875C19.2442 16.875 18.125 17.9943 18.125 19.375C18.125 20.7558 19.2442 21.875 20.625 21.875Z" fill="#FDFDFD"/>
</svg>
