<svg width="48" height="47" viewBox="0 0 48 47" fill="none" xmlns="http://www.w3.org/2000/svg">
<path d="M44.872 0.304199H3.46398C2.03467 0.304199 0.875977 1.45479 0.875977 2.87412V43.9928C0.875977 45.4121 2.03467 46.5627 3.46398 46.5627H44.872C46.3014 46.5627 47.4601 45.4121 47.4601 43.9928V2.87412C47.4601 1.45479 46.3014 0.304199 44.872 0.304199Z" fill="url(#paint0_linear_87_494)"/>
<path fill-rule="evenodd" clip-rule="evenodd" d="M37.3708 29.6604C37.2246 29.3057 37.0784 28.9215 36.9321 28.5958C36.6979 28.0638 36.4637 27.5601 36.2586 27.0872L36.2295 27.057C34.1799 22.5496 32.0226 18.0913 29.7595 13.6858L29.6708 13.5078C29.4373 13.0645 29.2031 12.591 28.9688 12.1181C28.6758 11.5849 28.3833 11.0233 27.9142 10.4907C26.9787 9.30791 25.6316 8.65643 24.1979 8.65643C22.7337 8.65643 21.4164 9.30791 20.4504 10.4322C20.0105 10.9642 19.6889 11.5264 19.3965 12.059C19.1616 12.5319 18.928 13.0054 18.6938 13.4493L18.6052 13.6267C16.3517 18.0643 14.1558 22.561 12.1352 26.9979L12.1067 27.057C11.9016 27.5312 11.6667 28.0336 11.4332 28.5669C11.2762 28.9173 11.1296 29.2723 10.9939 29.6315C10.6128 30.7256 10.4963 31.7613 10.6425 32.8259C10.9641 35.045 12.4283 36.9082 14.4482 37.737C15.2091 38.0627 16.0004 38.2105 16.8195 38.2105C17.0543 38.2105 17.3468 38.1803 17.5803 38.1514C18.547 38.0325 19.5427 37.7081 20.5087 37.1459C21.7089 36.4649 22.8508 35.4883 24.139 34.0684C25.4265 35.4883 26.5976 36.4649 27.7687 37.1459C28.7353 37.7074 29.7304 38.0325 30.6963 38.1514C30.9306 38.1803 31.2236 38.2105 31.4579 38.2105C32.2776 38.2105 33.0974 38.0627 33.8291 37.737C35.8788 36.9082 37.3132 35.0148 37.6354 32.8259C37.869 31.7902 37.7525 30.7558 37.3715 29.6604H37.3708ZM24.1681 31.1991C22.5868 29.1869 21.5626 27.2948 21.2113 25.6969C21.0651 25.0159 21.0353 24.4248 21.1233 23.8915C21.1815 23.4193 21.3575 23.0043 21.5917 22.6503C22.1482 21.851 23.085 21.348 24.1681 21.348C25.2518 21.348 26.2178 21.8215 26.7445 22.6503C26.9787 23.0036 27.154 23.4193 27.2129 23.8922C27.3002 24.4248 27.2711 25.0454 27.1255 25.6969C26.7742 27.2646 25.7494 29.1579 24.1681 31.1991ZM35.8491 32.5894C35.7474 33.3468 35.4481 34.0647 34.9809 34.6718C34.5136 35.2789 33.8946 35.7542 33.1854 36.0505C32.4827 36.346 31.7218 36.436 30.9603 36.346C30.2279 36.258 29.4968 36.0216 28.7353 35.577C27.6813 34.9859 26.6274 34.0691 25.3981 32.7083C27.33 30.3118 28.5017 28.1223 28.9404 26.1704C29.1455 25.2536 29.1739 24.4248 29.0866 23.6558C28.9785 22.9347 28.7085 22.247 28.2966 21.6435C27.3889 20.3123 25.8665 19.5426 24.1681 19.5426C22.4704 19.5426 20.948 20.3425 20.0402 21.6435C19.6277 22.2466 19.3576 22.9345 19.2502 23.6558C19.1262 24.4951 19.1759 25.3508 19.3965 26.1704C19.8351 28.1223 21.0353 30.3414 22.9388 32.7372C21.738 34.098 20.6549 35.0148 19.6016 35.6072C18.84 36.0505 18.1076 36.2882 17.3759 36.3762C16.6212 36.4609 15.8572 36.3593 15.1515 36.0807C14.4421 35.7842 13.823 35.3089 13.3555 34.7017C12.888 34.0945 12.5885 33.3765 12.4865 32.619C12.3992 31.8801 12.458 31.14 12.7505 30.3112C12.8391 30.0157 12.984 29.7201 13.1316 29.3648C13.3494 28.8689 13.5737 28.3759 13.8044 27.8858L13.8342 27.8267C15.8541 23.4193 18.0203 18.922 20.2745 14.5435L20.3624 14.3668C20.5967 13.9222 20.8302 13.4493 21.0651 13.0047C21.2993 12.5319 21.5633 12.0879 21.8842 11.7044C22.4988 10.9944 23.3192 10.6089 24.2263 10.6089C25.1341 10.6089 25.9538 10.9944 26.5685 11.7044C26.8907 12.0879 27.154 12.5319 27.3889 13.0054C27.6231 13.4493 27.8567 13.9222 28.0915 14.3668L28.1789 14.5435C30.3994 18.9413 32.537 23.3799 34.5906 27.8569V27.8858C34.8242 28.3593 35.0293 28.8913 35.2635 29.3648C35.4104 29.7201 35.5566 30.0157 35.644 30.3112C35.8788 31.0802 35.9668 31.821 35.8491 32.5894Z" fill="white"/>
<defs>
<linearGradient id="paint0_linear_87_494" x1="2330.08" y1="0.304199" x2="2330.08" y2="4626.16" gradientUnits="userSpaceOnUse">
<stop stop-color="#FF6E6B"/>
<stop offset="0.527005" stop-color="#F35B63"/>
<stop offset="1" stop-color="#E84A5C"/>
</linearGradient>
</defs>
</svg>
